<?xml version="1.0" encoding="UTF-8"?>
<!DOCTYPE svg PUBLIC "-//W3C//DTD SVG 1.1//EN" "http://www.w3.org/Graphics/SVG/1.1/DTD/svg11.dtd">
<svg xmlns="http://www.w3.org/2000/svg" version="1.1" width="2406px" height="360px" style="shape-rendering:geometricPrecision; text-rendering:geometricPrecision; image-rendering:optimizeQuality; fill-rule:evenodd; clip-rule:evenodd" xmlns:xlink="http://www.w3.org/1999/xlink">
<g><path style="opacity:0.988" fill="#0c80eb" d="M 70.5,11.5 C 75.9851,12.3272 81.6518,12.8272 87.5,13C 65,36.1667 42.5,59.3333 20,82.5C 19.5001,101.497 19.3334,120.497 19.5,139.5C 19.5,158.167 19.5,176.833 19.5,195.5C 19.5,214.5 19.5,233.5 19.5,252.5C 19.5,274.167 19.5,295.833 19.5,317.5C 19.8261,326.017 19.4927,334.35 18.5,342.5C 18.5,232.167 18.5,121.833 18.5,11.5C 35.8333,11.5 53.1667,11.5 70.5,11.5 Z"/></g>
<g><path style="opacity:0.982" fill="#0e86ea" d="M 70.5,11.5 C 101.167,11.5 131.833,11.5 162.5,11.5C 156.013,12.3283 149.346,12.8283 142.5,13C 127.015,29.3187 111.348,45.4854 95.5,61.5C 97.9688,62.1681 100.302,62.8347 102.5,63.5C 92.5,63.5 82.5,63.5 72.5,63.5C 72.5,70.8333 72.5,78.1667 72.5,85.5C 54.8333,103.5 37.1667,121.5 19.5,139.5C 19.3334,120.497 19.5001,101.497 20,82.5C 42.5,59.3333 65,36.1667 87.5,13C 81.6518,12.8272 75.9851,12.3272 70.5,11.5 Z"/></g>
<g><path style="opacity:0.979" fill="#0e8cea" d="M 162.5,11.5 C 177.5,11.5 192.5,11.5 207.5,11.5C 204.359,12.3213 201.025,12.8213 197.5,13C 181.296,29.7025 165.296,46.5358 149.5,63.5C 133.833,63.5 118.167,63.5 102.5,63.5C 100.302,62.8347 97.9688,62.1681 95.5,61.5C 111.348,45.4854 127.015,29.3187 142.5,13C 149.346,12.8283 156.013,12.3283 162.5,11.5 Z"/></g>
<g><path style="opacity:0.977" fill="#0f92eb" d="M 207.5,11.5 C 222.833,11.5 238.167,11.5 253.5,11.5C 236.204,29.9643 218.704,48.2976 201,66.5C 200.821,70.0252 200.321,73.3586 199.5,76.5C 199.5,72.1667 199.5,67.8333 199.5,63.5C 182.833,63.5 166.167,63.5 149.5,63.5C 165.296,46.5358 181.296,29.7025 197.5,13C 201.025,12.8213 204.359,12.3213 207.5,11.5 Z"/></g>
<g><path style="opacity:0.993" fill="#1099eb" d="M 253.5,11.5 C 284.167,11.5 314.833,11.5 345.5,11.5C 336.009,12.33 326.342,12.83 316.5,13C 242.333,89.1667 168.167,165.333 94,241.5C 93.829,233.656 93.329,225.989 92.5,218.5C 85.8333,218.5 79.1667,218.5 72.5,218.5C 72.5,233.833 72.5,249.167 72.5,264.5C 55.1937,282.473 37.527,300.14 19.5,317.5C 19.5,295.833 19.5,274.167 19.5,252.5C 73.6031,196.562 127.936,140.729 182.5,85C 176.652,84.8272 170.985,84.3272 165.5,83.5C 176.833,83.5 188.167,83.5 199.5,83.5C 199.5,81.1667 199.5,78.8333 199.5,76.5C 200.321,73.3586 200.821,70.0252 201,66.5C 218.704,48.2976 236.204,29.9643 253.5,11.5 Z"/></g>
<g><path style="opacity:0.993" fill="#109fec" d="M 345.5,11.5 C 360.833,11.5 376.167,11.5 391.5,11.5C 385.013,12.3283 378.346,12.8283 371.5,13C 359.863,25.6377 347.863,37.971 335.5,50C 336.056,50.3826 336.389,50.8826 336.5,51.5C 309.958,58.5239 287.791,72.5239 270,93.5C 255.501,111.828 244.668,132.161 237.5,154.5C 236.778,154.082 236.278,153.416 236,152.5C 197.66,192.339 159.16,232.006 120.5,271.5C 111.167,271.5 101.833,271.5 92.5,271.5C 92.5,253.833 92.5,236.167 92.5,218.5C 93.329,225.989 93.829,233.656 94,241.5C 168.167,165.333 242.333,89.1667 316.5,13C 326.342,12.83 336.009,12.33 345.5,11.5 Z"/></g>
<g><path style="opacity:0.974" fill="#11a5ec" d="M 391.5,11.5 C 406.5,11.5 421.5,11.5 436.5,11.5C 433.695,12.3195 430.695,12.8195 427.5,13C 414.631,25.7015 401.965,38.5348 389.5,51.5C 371.795,47.5227 354.128,47.5227 336.5,51.5C 336.389,50.8826 336.056,50.3826 335.5,50C 347.863,37.971 359.863,25.6377 371.5,13C 378.346,12.8283 385.013,12.3283 391.5,11.5 Z"/></g>
<g><path style="opacity:0.992" fill="#13b8ef" d="M 565.5,11.5 C 580.833,11.5 596.167,11.5 611.5,11.5C 608.359,12.3213 605.025,12.8213 601.5,13C 585.083,29.0821 569.083,45.4154 553.5,62C 556.365,62.1829 559.031,62.6829 561.5,63.5C 551.167,63.5 540.833,63.5 530.5,63.5C 530.5,70.1667 530.5,76.8333 530.5,83.5C 534.167,83.5 537.833,83.5 541.5,83.5C 538.023,84.3227 534.356,84.8227 530.5,85C 514.276,102.725 497.276,119.558 479.5,135.5C 474.372,123.075 468.039,111.409 460.5,100.5C 488.63,70.8697 517.296,41.7031 546.5,13C 553.013,12.8279 559.347,12.3279 565.5,11.5 Z"/></g>
<g><path style="opacity:0.982" fill="#13beef" d="M 611.5,11.5 C 626.833,11.5 642.167,11.5 657.5,11.5C 640.951,28.2139 624.618,45.0472 608.5,62C 611.365,62.1829 614.031,62.6829 616.5,63.5C 598.167,63.5 579.833,63.5 561.5,63.5C 559.031,62.6829 556.365,62.1829 553.5,62C 569.083,45.4154 585.083,29.0821 601.5,13C 605.025,12.8213 608.359,12.3213 611.5,11.5 Z"/></g>
<g><path style="opacity:0.98" fill="#14c4ef" d="M 657.5,11.5 C 674.833,11.5 692.167,11.5 709.5,11.5C 709.5,15.8333 709.5,20.1667 709.5,24.5C 708.683,22.0314 708.183,19.3647 708,16.5C 691.947,33.5519 675.614,50.2185 659,66.5C 658.768,65.2625 658.268,64.2625 657.5,63.5C 643.833,63.5 630.167,63.5 616.5,63.5C 614.031,62.6829 611.365,62.1829 608.5,62C 624.618,45.0472 640.951,28.2139 657.5,11.5 Z"/></g>
<g><path style="opacity:0.997" fill="#11abed" d="M 436.5,11.5 C 452.167,11.5 467.833,11.5 483.5,11.5C 466.841,28.6588 450.008,45.6588 433,62.5C 431.25,64.7343 429.75,67.0676 428.5,69.5C 416.416,61.6262 403.416,55.6262 389.5,51.5C 401.965,38.5348 414.631,25.7015 427.5,13C 430.695,12.8195 433.695,12.3195 436.5,11.5 Z"/></g>
<g><path style="opacity:0.998" fill="#12b2ee" d="M 483.5,11.5 C 510.833,11.5 538.167,11.5 565.5,11.5C 559.347,12.3279 553.013,12.8279 546.5,13C 517.296,41.7031 488.63,70.8697 460.5,100.5C 454.366,94.1964 448.366,87.6964 442.5,81C 437.935,76.9245 433.268,73.0912 428.5,69.5C 429.75,67.0676 431.25,64.7343 433,62.5C 450.008,45.6588 466.841,28.6588 483.5,11.5 Z"/></g>
<g><path style="opacity:0.977" fill="#14cbf0" d="M 709.5,24.5 C 709.5,130.5 709.5,236.5 709.5,342.5C 708.667,255.668 708.167,168.668 708,81.5C 692.029,98.4715 675.696,115.138 659,131.5C 658.503,133.81 658.337,136.143 658.5,138.5C 656.473,138.338 654.473,138.505 652.5,139C 586.137,206.362 520.137,274.029 454.5,342C 447.986,342.82 441.653,342.653 435.5,341.5C 467.197,314.46 486.197,280.127 492.5,238.5C 501.073,228.753 509.906,219.086 519,209.5C 558.363,169.804 597.363,129.804 636,89.5C 636.181,92.6946 636.681,95.6946 637.5,98.5C 637.5,111.5 637.5,124.5 637.5,137.5C 644.167,137.5 650.833,137.5 657.5,137.5C 657.5,112.833 657.5,88.1667 657.5,63.5C 658.268,64.2625 658.768,65.2625 659,66.5C 675.614,50.2185 691.947,33.5519 708,16.5C 708.183,19.3647 708.683,22.0314 709.5,24.5 Z M 637.5,218.5 C 644.167,218.5 650.833,218.5 657.5,218.5C 657.5,242.833 657.5,267.167 657.5,291.5C 615.167,291.5 572.833,291.5 530.5,291.5C 530.5,284.833 530.5,278.167 530.5,271.5C 566.167,271.5 601.833,271.5 637.5,271.5C 637.5,253.833 637.5,236.167 637.5,218.5 Z"/></g>
<g><path style="opacity:0.965" fill="#000000" d="M 1885.5,66.5 C 1899.04,66.2394 1912.38,67.7394 1925.5,71C 1936.8,74.4253 1941.3,81.9253 1939,93.5C 1934.53,101.326 1927.7,105.493 1918.5,106C 1913.51,106.499 1908.51,106.666 1903.5,106.5C 1903.68,99.5557 1901.85,93.2223 1898,87.5C 1887.17,81.7486 1880.84,85.082 1879,97.5C 1877.73,109.131 1877.23,120.797 1877.5,132.5C 1890.5,132.5 1903.5,132.5 1916.5,132.5C 1916.5,139.5 1916.5,146.5 1916.5,153.5C 1903.5,153.5 1890.5,153.5 1877.5,153.5C 1877.03,188.882 1877.53,224.215 1879,259.5C 1881.01,263.593 1884.17,266.427 1888.5,268C 1895.76,269.348 1903.09,269.848 1910.5,269.5C 1910.5,274.833 1910.5,280.167 1910.5,285.5C 1876.17,285.5 1841.83,285.5 1807.5,285.5C 1807.5,280.167 1807.5,274.833 1807.5,269.5C 1815.34,270.414 1822.5,268.748 1829,264.5C 1830.86,262.112 1832.19,259.446 1833,256.5C 1833.5,222.168 1833.67,187.835 1833.5,153.5C 1825.17,153.5 1816.83,153.5 1808.5,153.5C 1808.5,146.5 1808.5,139.5 1808.5,132.5C 1816.83,132.5 1825.17,132.5 1833.5,132.5C 1832.12,117.445 1834.62,103.112 1841,89.5C 1846.09,81.6933 1852.92,75.8599 1861.5,72C 1869.38,69.0609 1877.38,67.2276 1885.5,66.5 Z"/></g>
<g><path style="opacity:0.96" fill="#000000" d="M 925.5,79.5 C 939.659,78.8905 953.659,80.0572 967.5,83C 977.967,85.6387 986.467,91.1387 993,99.5C 1000.42,116.935 995.25,128.768 977.5,135C 971.912,136.289 966.245,136.789 960.5,136.5C 960.819,122.643 955.819,111.143 945.5,102C 931.446,95.0102 918.946,97.1769 908,108.5C 900.479,123.893 903.312,137.06 916.5,148C 923.011,152.759 930.011,156.759 937.5,160C 955.614,166.056 972.281,174.722 987.5,186C 1005.1,204.343 1009.27,225.51 1000,249.5C 989.505,269.643 973.005,281.809 950.5,286C 928.04,290.073 906.04,288.406 884.5,281C 861.457,270.195 855.29,253.362 866,230.5C 873.761,223.44 882.928,220.44 893.5,221.5C 892.544,236.465 896.878,249.632 906.5,261C 919.324,271.016 933.324,273.016 948.5,267C 962.682,259.799 968.182,248.299 965,232.5C 962.037,223.869 956.537,217.369 948.5,213C 931.621,204.727 914.621,196.727 897.5,189C 869.605,172.669 860.105,148.836 869,117.5C 876.976,99.5245 890.476,88.0245 909.5,83C 914.954,81.7451 920.287,80.5784 925.5,79.5 Z"/></g>
<g><path style="opacity:0.991" fill="#15cef0" d="M 709.5,342.5 C 617.999,343.832 526.332,343.832 434.5,342.5C 434.624,341.893 434.957,341.56 435.5,341.5C 441.653,342.653 447.986,342.82 454.5,342C 520.137,274.029 586.137,206.362 652.5,139C 654.473,138.505 656.473,138.338 658.5,138.5C 658.337,136.143 658.503,133.81 659,131.5C 675.696,115.138 692.029,98.4715 708,81.5C 708.167,168.668 708.667,255.668 709.5,342.5 Z M 637.5,218.5 C 637.5,236.167 637.5,253.833 637.5,271.5C 601.833,271.5 566.167,271.5 530.5,271.5C 530.5,278.167 530.5,284.833 530.5,291.5C 572.833,291.5 615.167,291.5 657.5,291.5C 657.5,267.167 657.5,242.833 657.5,218.5C 650.833,218.5 644.167,218.5 637.5,218.5 Z"/></g>
<g><path style="opacity:0.994" fill="#0f92eb" d="M 165.5,83.5 C 170.985,84.3272 176.652,84.8272 182.5,85C 127.936,140.729 73.6031,196.562 19.5,252.5C 19.5,233.5 19.5,214.5 19.5,195.5C 37.9378,176.562 56.6045,157.728 75.5,139C 79.0252,138.821 82.3586,138.321 85.5,137.5C 87.8333,137.5 90.1667,137.5 92.5,137.5C 92.5,119.5 92.5,101.5 92.5,83.5C 116.833,83.5 141.167,83.5 165.5,83.5 Z"/></g>
<g><path style="opacity:0.997" fill="#13beef" d="M 541.5,83.5 C 559.5,83.5 577.5,83.5 595.5,83.5C 592.359,84.3213 589.025,84.8213 585.5,85C 554.27,116.729 523.27,148.562 492.5,180.5C 490.182,164.892 485.849,149.892 479.5,135.5C 497.276,119.558 514.276,102.725 530.5,85C 534.356,84.8227 538.023,84.3227 541.5,83.5 Z"/></g>
<g><path style="opacity:0.997" fill="#14c4ef" d="M 595.5,83.5 C 609.5,83.5 623.5,83.5 637.5,83.5C 637.5,88.5 637.5,93.5 637.5,98.5C 636.681,95.6946 636.181,92.6946 636,89.5C 597.363,129.804 558.363,169.804 519,209.5C 509.906,219.086 501.073,228.753 492.5,238.5C 495.14,219.163 495.14,199.83 492.5,180.5C 523.27,148.562 554.27,116.729 585.5,85C 589.025,84.8213 592.359,84.3213 595.5,83.5 Z"/></g>
<g><path style="opacity:0.993" fill="#0e8cea" d="M 72.5,85.5 C 72.5,102.833 72.5,120.167 72.5,137.5C 76.8333,137.5 81.1667,137.5 85.5,137.5C 82.3586,138.321 79.0252,138.821 75.5,139C 56.6045,157.728 37.9378,176.562 19.5,195.5C 19.5,176.833 19.5,158.167 19.5,139.5C 37.1667,121.5 54.8333,103.5 72.5,85.5 Z"/></g>
<g><path style="opacity:0.991" fill="#109fec" d="M 364.5,92.5 C 363.791,93.404 362.791,93.7373 361.5,93.5C 357.222,112.78 352.555,131.947 347.5,151C 348.416,151.278 349.082,151.778 349.5,152.5C 345.115,156.076 343.448,160.743 344.5,166.5C 340.813,181.25 336.813,195.916 332.5,210.5C 329.968,209.404 327.635,208.071 325.5,206.5C 332.191,177.07 339.191,147.737 346.5,118.5C 347.493,110.016 347.826,101.349 347.5,92.5C 353.167,92.5 358.833,92.5 364.5,92.5 Z"/></g>
<g><path style="opacity:0.992" fill="#11a7ed" d="M 364.5,92.5 C 367.833,92.5 371.167,92.5 374.5,92.5C 373.866,100.903 374.533,108.903 376.5,116.5C 375.531,117.309 374.698,118.309 374,119.5C 371.514,128.775 369.348,138.109 367.5,147.5C 360.951,147.473 354.951,149.139 349.5,152.5C 349.082,151.778 348.416,151.278 347.5,151C 352.555,131.947 357.222,112.78 361.5,93.5C 362.791,93.7373 363.791,93.404 364.5,92.5 Z"/></g>
<g><path style="opacity:0.962" fill="#000000" d="M 1660.5,97.5 C 1668.83,97.5 1677.17,97.5 1685.5,97.5C 1685.5,109.167 1685.5,120.833 1685.5,132.5C 1697.5,132.5 1709.5,132.5 1721.5,132.5C 1721.5,139.5 1721.5,146.5 1721.5,153.5C 1709.5,153.5 1697.5,153.5 1685.5,153.5C 1685.03,186.882 1685.53,220.216 1687,253.5C 1688.7,259.864 1692.87,263.364 1699.5,264C 1707.34,264.714 1715,263.881 1722.5,261.5C 1723.83,268.167 1723.83,274.833 1722.5,281.5C 1703.91,288.132 1684.91,289.632 1665.5,286C 1653.84,281.67 1646.34,273.503 1643,261.5C 1641.53,225.54 1641.03,189.54 1641.5,153.5C 1634.17,153.5 1626.83,153.5 1619.5,153.5C 1619.5,148.167 1619.5,142.833 1619.5,137.5C 1636.99,136.835 1649.15,128.502 1656,112.5C 1657.81,107.572 1659.31,102.572 1660.5,97.5 Z"/></g>
<g><path style="opacity:0.99" fill="#12b6ee" d="M 376.5,116.5 C 382.783,116.585 388.783,117.585 394.5,119.5C 391.973,129.938 388.973,140.271 385.5,150.5C 379.617,149.013 373.617,148.013 367.5,147.5C 369.348,138.109 371.514,128.775 374,119.5C 374.698,118.309 375.531,117.309 376.5,116.5 Z"/></g>
<g><path style="opacity:0.991" fill="#1099ec" d="M 346.5,118.5 C 339.191,147.737 332.191,177.07 325.5,206.5C 322.19,204.518 319.19,202.185 316.5,199.5C 322.084,174.806 327.917,149.806 334,124.5C 335.045,123.627 335.878,122.627 336.5,121.5C 339.699,120.101 343.032,119.101 346.5,118.5 Z"/></g>
<g><path style="opacity:0.991" fill="#0f92eb" d="M 336.5,121.5 C 335.878,122.627 335.045,123.627 334,124.5C 327.917,149.806 322.084,174.806 316.5,199.5C 313.067,196.399 310.4,192.732 308.5,188.5C 314.1,168.766 319.1,148.766 323.5,128.5C 327.347,125.407 331.68,123.074 336.5,121.5 Z"/></g>
<g><path style="opacity:0.962" fill="#14c3ef" d="M 394.5,119.5 C 401.182,120.279 407.182,122.613 412.5,126.5C 409.962,136.99 406.962,147.323 403.5,157.5C 397.779,154.372 391.779,152.039 385.5,150.5C 388.973,140.271 391.973,129.938 394.5,119.5 Z"/></g>
<g><path style="opacity:0.977" fill="#0f8dea" d="M 323.5,128.5 C 319.1,148.766 314.1,168.766 308.5,188.5C 300.71,170.769 302.21,153.769 313,137.5C 316.078,133.915 319.578,130.915 323.5,128.5 Z"/></g>
<g><path style="opacity:0.971" fill="#000000" d="M 1118.5,129.5 C 1127.51,129.334 1136.51,129.5 1145.5,130C 1159.85,132.247 1170.35,139.747 1177,152.5C 1183.15,142.014 1191.99,134.847 1203.5,131C 1217.68,128.494 1231.68,129.161 1245.5,133C 1259.12,140.059 1266.95,151.225 1269,166.5C 1269.98,198.184 1270.98,229.851 1272,261.5C 1273.5,264.333 1275.67,266.5 1278.5,268C 1282.42,269.156 1286.42,269.656 1290.5,269.5C 1290.5,274.833 1290.5,280.167 1290.5,285.5C 1269.17,285.5 1247.83,285.5 1226.5,285.5C 1226.67,251.832 1226.5,218.165 1226,184.5C 1225.8,175.83 1223.47,167.83 1219,160.5C 1213.29,154.883 1206.46,153.05 1198.5,155C 1188.04,160.155 1182.21,168.655 1181,180.5C 1179.04,206.842 1179.04,233.175 1181,259.5C 1182.52,265.357 1186.35,268.524 1192.5,269C 1194.81,269.497 1197.14,269.663 1199.5,269.5C 1199.5,274.833 1199.5,280.167 1199.5,285.5C 1178.5,285.5 1157.5,285.5 1136.5,285.5C 1136.92,249.145 1136.42,212.811 1135,176.5C 1132.11,157.601 1121.61,151.101 1103.5,157C 1096.03,163.437 1091.86,171.603 1091,181.5C 1089.94,195.307 1089.44,209.14 1089.5,223C 1089.39,235.212 1089.89,247.379 1091,259.5C 1092.42,263.251 1094.92,266.084 1098.5,268C 1102.77,269.075 1107.1,269.575 1111.5,269.5C 1111.5,274.833 1111.5,280.167 1111.5,285.5C 1082.17,285.5 1052.83,285.5 1023.5,285.5C 1023.5,280.167 1023.5,274.833 1023.5,269.5C 1028.64,269.506 1033.64,268.673 1038.5,267C 1040.71,265.127 1042.54,262.96 1044,260.5C 1045.15,243.063 1045.65,225.563 1045.5,208C 1045.65,190.437 1045.15,172.937 1044,155.5C 1042.44,152.272 1039.94,150.105 1036.5,149C 1032.51,148.358 1028.51,147.858 1024.5,147.5C 1024.5,142.5 1024.5,137.5 1024.5,132.5C 1044.83,132.5 1065.17,132.5 1085.5,132.5C 1086.08,139.257 1087.25,145.924 1089,152.5C 1095.26,140.051 1105.1,132.384 1118.5,129.5 Z"/></g>
<g><path style="opacity:0.965" fill="#000000" d="M 1362.5,129.5 C 1376.21,129.138 1389.87,129.638 1403.5,131C 1423.59,134.088 1435.42,145.588 1439,165.5C 1439.05,197.201 1439.71,228.867 1441,260.5C 1444.16,267.499 1449.66,270.499 1457.5,269.5C 1457.5,274.833 1457.5,280.167 1457.5,285.5C 1439.83,285.667 1422.16,285.5 1404.5,285C 1402.4,278.427 1400.06,271.927 1397.5,265.5C 1381.34,287.161 1360.34,293.661 1334.5,285C 1316.91,276.161 1308.57,261.828 1309.5,242C 1309.11,219.046 1320.11,204.712 1342.5,199C 1359.98,195.513 1377.65,194.013 1395.5,194.5C 1395.67,184.494 1395.5,174.494 1395,164.5C 1392.57,149.075 1384.07,144.242 1369.5,150C 1365.62,152.928 1363.12,156.761 1362,161.5C 1360.91,166.78 1360.41,172.113 1360.5,177.5C 1350.6,178.183 1340.93,177.016 1331.5,174C 1324.05,171.221 1320.72,165.888 1321.5,158C 1321.03,150.28 1324.03,144.28 1330.5,140C 1340.54,134.329 1351.21,130.829 1362.5,129.5 Z M 1382.5,210.5 C 1386.83,210.5 1391.17,210.5 1395.5,210.5C 1395.67,220.506 1395.5,230.506 1395,240.5C 1391.98,259.558 1381.15,267.725 1362.5,265C 1359.57,262.736 1357.4,259.902 1356,256.5C 1354.47,248.564 1354.14,240.564 1355,232.5C 1356.05,223.786 1360.55,217.619 1368.5,214C 1373.22,212.506 1377.89,211.339 1382.5,210.5 Z"/></g>
<g><path style="opacity:0.962" fill="#000000" d="M 1567.5,129.5 C 1577.3,128.973 1586.97,129.806 1596.5,132C 1603.43,134.594 1607.93,139.427 1610,146.5C 1612.88,163.596 1606.04,174.43 1589.5,179C 1584.23,180.191 1578.9,180.691 1573.5,180.5C 1574.04,173.843 1572.87,167.51 1570,161.5C 1560.34,154.983 1552.34,156.65 1546,166.5C 1542.28,173.729 1539.94,181.396 1539,189.5C 1538.03,213.23 1538.36,236.897 1540,260.5C 1541.17,264.333 1543.67,266.833 1547.5,268C 1554.1,269.274 1560.77,269.774 1567.5,269.5C 1567.5,274.833 1567.5,280.167 1567.5,285.5C 1535.5,285.5 1503.5,285.5 1471.5,285.5C 1471.5,280.167 1471.5,274.833 1471.5,269.5C 1479.89,270.379 1486.73,267.712 1492,261.5C 1492.92,258.899 1493.59,256.232 1494,253.5C 1494.17,238.5 1494.33,223.5 1494.5,208.5C 1494.63,191.791 1494.13,175.124 1493,158.5C 1491.5,154.333 1488.67,151.5 1484.5,150C 1480.56,148.985 1476.56,148.485 1472.5,148.5C 1472.5,143.167 1472.5,137.833 1472.5,132.5C 1492.17,132.5 1511.83,132.5 1531.5,132.5C 1533.02,139.899 1534.85,147.232 1537,154.5C 1542.61,140.374 1552.77,132.041 1567.5,129.5 Z"/></g>
<g><path style="opacity:0.963" fill="#000000" d="M 1987.5,129.5 C 2045.91,126.251 2072.58,153.917 2067.5,212.5C 2036.83,212.5 2006.17,212.5 1975.5,212.5C 1975.04,226.716 1978.21,240.05 1985,252.5C 1996.15,265.401 2009.98,269.234 2026.5,264C 2031.72,262.721 2036.39,260.388 2040.5,257C 2045.1,252.737 2049.27,248.237 2053,243.5C 2055.65,244.821 2057.65,246.821 2059,249.5C 2062.39,265.148 2056.56,275.981 2041.5,282C 2017.49,290.556 1993.49,290.556 1969.5,282C 1945.28,269.775 1932.45,249.942 1931,222.5C 1929.22,204.065 1931.22,186.065 1937,168.5C 1946.45,145.872 1963.29,132.872 1987.5,129.5 Z M 1997.5,148.5 C 2010.58,148.732 2018.41,155.398 2021,168.5C 2022.6,176.757 2023.44,185.091 2023.5,193.5C 2007.5,193.5 1991.5,193.5 1975.5,193.5C 1975.73,181.185 1978.56,169.519 1984,158.5C 1987.58,153.731 1992.08,150.397 1997.5,148.5 Z"/></g>
<g><path style="opacity:0.963" fill="#000000" d="M 2148.5,129.5 C 2167.56,126.982 2185.56,130.149 2202.5,139C 2219.9,151.972 2228.74,169.472 2229,191.5C 2229.5,198.492 2229.67,205.492 2229.5,212.5C 2198.5,212.5 2167.5,212.5 2136.5,212.5C 2136.3,227.69 2140.13,241.69 2148,254.5C 2154.83,262.338 2163.49,266.338 2174,266.5C 2191.47,265.771 2204.81,258.105 2214,243.5C 2217.43,244.673 2219.77,247.006 2221,250.5C 2223.28,259.79 2221.11,267.79 2214.5,274.5C 2205.52,281.885 2195.19,286.052 2183.5,287C 2161.67,290.594 2141,287.261 2121.5,277C 2106.42,266.364 2097.25,251.864 2094,233.5C 2090.17,211.084 2091.84,189.084 2099,167.5C 2108.72,145.936 2125.22,133.269 2148.5,129.5 Z M 2158.5,148.5 C 2166.02,147.394 2172.19,149.728 2177,155.5C 2183.04,167.424 2185.54,180.091 2184.5,193.5C 2168.83,193.5 2153.17,193.5 2137.5,193.5C 2136.93,180.156 2140.1,167.823 2147,156.5C 2150.48,153.161 2154.32,150.494 2158.5,148.5 Z"/></g>
<g><path style="opacity:0.955" fill="#000000" d="M 2300.5,129.5 C 2317.85,127.765 2334.52,130.265 2350.5,137C 2363.03,144.898 2365.86,155.398 2359,168.5C 2356.59,170.956 2353.76,172.789 2350.5,174C 2344.58,175.441 2338.58,176.274 2332.5,176.5C 2333.46,155.292 2323.46,145.458 2302.5,147C 2287.03,151.107 2282.86,160.274 2290,174.5C 2292.07,176.452 2294.24,178.285 2296.5,180C 2309.16,186.162 2322.16,191.496 2335.5,196C 2365.5,208.989 2374.67,230.822 2363,261.5C 2355.97,273.849 2345.47,281.683 2331.5,285C 2314.59,289.27 2297.59,289.603 2280.5,286C 2267.76,284.225 2257.92,278.058 2251,267.5C 2243.9,245.019 2252.06,233.352 2275.5,232.5C 2276.72,262.92 2292.05,274.754 2321.5,268C 2334.96,260.288 2336.96,250.288 2327.5,238C 2323.33,235.083 2319,232.416 2314.5,230C 2297.95,224.887 2282.28,217.887 2267.5,209C 2252.17,195.175 2247.67,178.341 2254,158.5C 2258.56,146.936 2266.73,139.102 2278.5,135C 2285.76,132.321 2293.1,130.487 2300.5,129.5 Z"/></g>
<g><path style="opacity:0.996" fill="#11a5ed" d="M 237.5,154.5 C 231.871,174.193 229.538,194.193 230.5,214.5C 212.367,232.8 194.367,251.3 176.5,270C 179.365,270.183 182.031,270.683 184.5,271.5C 163.167,271.5 141.833,271.5 120.5,271.5C 159.16,232.006 197.66,192.339 236,152.5C 236.278,153.416 236.778,154.082 237.5,154.5 Z"/></g>
<g><path style="opacity:0.987" fill="#12aaed" d="M 344.5,166.5 C 348.538,171.866 353.538,176.199 359.5,179.5C 356.439,191.635 353.439,203.802 350.5,216C 350.905,216.945 351.572,217.612 352.5,218C 352.272,218.399 351.938,218.565 351.5,218.5C 344.753,216.621 338.42,213.954 332.5,210.5C 336.813,195.916 340.813,181.25 344.5,166.5 Z"/></g>
<g><path style="opacity:0.992" fill="#12b6ee" d="M 359.5,179.5 C 365.505,181.835 371.505,184.168 377.5,186.5C 374.406,200.176 371.406,213.509 368.5,226.5C 362.889,223.526 357.223,220.859 351.5,218.5C 351.938,218.565 352.272,218.399 352.5,218C 351.572,217.612 350.905,216.945 350.5,216C 353.439,203.802 356.439,191.635 359.5,179.5 Z"/></g>
<g><path style="opacity:0.987" fill="#13c2ef" d="M 377.5,186.5 C 383.96,188.753 389.96,191.753 395.5,195.5C 394.609,196.261 393.942,197.261 393.5,198.5C 386.627,227.53 379.627,256.53 372.5,285.5C 372.942,286.739 373.609,287.739 374.5,288.5C 373.506,297.986 373.173,307.652 373.5,317.5C 364.318,317.827 355.318,317.493 346.5,316.5C 350.978,297.585 355.645,278.585 360.5,259.5C 360.376,258.893 360.043,258.56 359.5,258.5C 368.475,257.591 374.642,252.924 378,244.5C 378.458,240.658 377.791,236.991 376,233.5C 373.604,230.933 371.104,228.6 368.5,226.5C 371.406,213.509 374.406,200.176 377.5,186.5 Z"/></g>
<g><path style="opacity:0.992" fill="#14cbf0" d="M 395.5,195.5 C 400.063,197.395 403.73,200.395 406.5,204.5C 405.451,204.402 404.285,204.402 403,204.5C 396.181,231.776 389.681,259.109 383.5,286.5C 380.598,287.578 377.598,288.244 374.5,288.5C 373.609,287.739 372.942,286.739 372.5,285.5C 379.627,256.53 386.627,227.53 393.5,198.5C 393.942,197.261 394.609,196.261 395.5,195.5 Z"/></g>
<g><path style="opacity:0.985" fill="#15cff1" d="M 406.5,204.5 C 412.621,209.729 416.454,216.396 418,224.5C 423.375,254.764 411.875,275.431 383.5,286.5C 389.681,259.109 396.181,231.776 403,204.5C 404.285,204.402 405.451,204.402 406.5,204.5 Z"/></g>
<g><path style="opacity:0.983" fill="#11abed" d="M 230.5,214.5 C 230.78,231.462 233.114,248.129 237.5,264.5C 212.034,290.133 186.701,315.967 161.5,342C 154.987,342.172 148.653,342.672 142.5,343.5C 127.167,343.5 111.833,343.5 96.5,343.5C 99.6414,342.679 102.975,342.179 106.5,342C 122.5,325.667 138.5,309.333 154.5,293C 151.635,292.817 148.969,292.317 146.5,291.5C 164.167,291.5 181.833,291.5 199.5,291.5C 199.5,284.833 199.5,278.167 199.5,271.5C 194.5,271.5 189.5,271.5 184.5,271.5C 182.031,270.683 179.365,270.183 176.5,270C 194.367,251.3 212.367,232.8 230.5,214.5 Z"/></g>
<g><path style="opacity:0.982" fill="#109eec" d="M 324.5,253.5 C 323.414,253.62 322.747,254.287 322.5,255.5C 320.164,264.844 317.831,274.177 315.5,283.5C 316.243,284.182 316.909,284.849 317.5,285.5C 311.599,284.316 306.266,281.983 301.5,278.5C 304.324,268.205 306.99,257.871 309.5,247.5C 309.833,247.167 310.167,246.833 310.5,246.5C 315.271,248.853 319.937,251.186 324.5,253.5 Z"/></g>
<g><path style="opacity:0.991" fill="#11a9ed" d="M 324.5,253.5 C 329.173,254.503 333.839,255.503 338.5,256.5C 338.577,257.75 339.244,258.583 340.5,259C 337.619,269.025 335.286,279.192 333.5,289.5C 327.83,289.083 322.497,287.749 317.5,285.5C 316.909,284.849 316.243,284.182 315.5,283.5C 317.831,274.177 320.164,264.844 322.5,255.5C 322.747,254.287 323.414,253.62 324.5,253.5 Z"/></g>
<g><path style="opacity:0.999" fill="#12b6ee" d="M 338.5,256.5 C 345.365,258.08 352.365,258.747 359.5,258.5C 360.043,258.56 360.376,258.893 360.5,259.5C 355.645,278.585 350.978,297.585 346.5,316.5C 346.5,308.167 346.5,299.833 346.5,291.5C 342.092,291.075 337.758,290.408 333.5,289.5C 335.286,279.192 337.619,269.025 340.5,259C 339.244,258.583 338.577,257.75 338.5,256.5 Z"/></g>
<g><path style="opacity:0.986" fill="#109fec" d="M 72.5,264.5 C 72.5,273.5 72.5,282.5 72.5,291.5C 84.8333,291.5 97.1667,291.5 109.5,291.5C 106.359,292.321 103.025,292.821 99.5,293C 82.6004,309.398 66.2671,326.231 50.5,343.5C 39.6536,343.828 28.9869,343.494 18.5,342.5C 19.4927,334.35 19.8261,326.017 19.5,317.5C 37.527,300.14 55.1937,282.473 72.5,264.5 Z"/></g>
<g><path style="opacity:0.98" fill="#12b1ee" d="M 237.5,264.5 C 242.862,279.892 249.862,294.559 258.5,308.5C 247.757,319.745 236.757,330.911 225.5,342C 231.681,342.172 237.681,342.672 243.5,343.5C 209.833,343.5 176.167,343.5 142.5,343.5C 148.653,342.672 154.987,342.172 161.5,342C 186.701,315.967 212.034,290.133 237.5,264.5 Z"/></g>
<g><path style="opacity:0.992" fill="#11a5ed" d="M 109.5,291.5 C 121.833,291.5 134.167,291.5 146.5,291.5C 148.969,292.317 151.635,292.817 154.5,293C 138.5,309.333 122.5,325.667 106.5,342C 102.975,342.179 99.6414,342.679 96.5,343.5C 81.1667,343.5 65.8333,343.5 50.5,343.5C 66.2671,326.231 82.6004,309.398 99.5,293C 103.025,292.821 106.359,292.321 109.5,291.5 Z"/></g>
<g><path style="opacity:0.962" fill="#13b7ef" d="M 258.5,308.5 C 267.363,321.037 277.697,332.37 289.5,342.5C 274.181,343.499 258.848,343.833 243.5,343.5C 237.681,342.672 231.681,342.172 225.5,342C 236.757,330.911 247.757,319.745 258.5,308.5 Z"/></g>
</svg>
