<svg class="iconLeft" viewBox="0 0 187.32894736842104 91.25" xmlns="http://www.w3.org/2000/svg" data-v-423bf9ae="" style="max-height: 500px" width="187.32894736842104" height="91.25"><g transform="matrix(5.5045868669954245,0,0,5.5045868669954245,205.44076574680028,2.7247711816085385)" fill="#000000" id="e3dcdd56-bb23-4048-b056-1bd12d670fbe" data-v-423bf9ae=""><path d="M3.70 13.13L3.70 13.13Q2.75 13.13 2.13 12.95Q1.50 12.78 1.12 12.50Q0.74 12.22 0.58 11.87Q0.42 11.52 0.42 11.18L0.42 11.18Q0.42 10.81 0.55 10.57Q0.68 10.32 0.91 10.17Q1.13 10.01 1.41 9.94Q1.70 9.87 2.00 9.87L2.00 9.87Q2.00 10.47 2.15 10.93Q2.29 11.38 2.54 11.69Q2.80 11.99 3.15 12.14Q3.50 12.30 3.92 12.30L3.92 12.30Q4.33 12.30 4.65 12.18Q4.97 12.07 5.20 11.86Q5.42 11.66 5.54 11.38Q5.65 11.10 5.65 10.78L5.65 10.78Q5.65 10.42 5.51 10.15Q5.37 9.87 5.08 9.64Q4.79 9.40 4.34 9.18Q3.90 8.97 3.32 8.72L3.32 8.72Q2.58 8.42 2.08 8.10Q1.58 7.79 1.27 7.42Q0.96 7.05 0.83 6.62Q0.70 6.19 0.70 5.67L0.70 5.67Q0.70 5.03 0.96 4.51Q1.22 3.99 1.67 3.62Q2.13 3.25 2.76 3.06Q3.39 2.86 4.13 2.86L4.13 2.86Q4.90 2.86 5.46 2.98Q6.02 3.11 6.39 3.33Q6.75 3.55 6.93 3.85Q7.11 4.14 7.11 4.48L7.11 4.48Q7.11 4.73 7.00 4.94Q6.90 5.15 6.68 5.31Q6.47 5.47 6.14 5.56Q5.82 5.65 5.39 5.65L5.39 5.65Q5.39 5.35 5.31 5.01Q5.23 4.68 5.05 4.39Q4.87 4.09 4.59 3.90Q4.31 3.71 3.90 3.71L3.90 3.71Q3.62 3.71 3.37 3.79Q3.12 3.88 2.93 4.04Q2.74 4.20 2.63 4.45Q2.52 4.69 2.52 5.00L2.52 5.00Q2.52 5.30 2.62 5.56Q2.71 5.82 2.97 6.07Q3.23 6.32 3.67 6.57Q4.12 6.82 4.83 7.10L4.83 7.10Q5.55 7.40 6.06 7.70Q6.56 8.01 6.89 8.36Q7.21 8.72 7.36 9.14Q7.51 9.56 7.51 10.07L7.51 10.07Q7.51 10.75 7.24 11.31Q6.97 11.87 6.47 12.28Q5.97 12.68 5.27 12.91Q4.57 13.13 3.70 13.13ZM17.18 13.00L14.07 13.00L14.07 8.39Q14.07 7.94 14.01 7.58Q13.95 7.23 13.82 6.99Q13.69 6.75 13.47 6.63Q13.25 6.50 12.95 6.50L12.95 6.50Q12.60 6.50 12.37 6.68Q12.13 6.86 11.99 7.15Q11.85 7.45 11.79 7.84Q11.73 8.24 11.73 8.67L11.73 8.67L11.73 11.34Q11.73 11.63 11.80 11.81Q11.87 11.99 12.00 12.09Q12.13 12.19 12.32 12.22Q12.51 12.25 12.74 12.25L12.74 12.25L12.78 12.25L12.78 13.00L8.48 13.00L8.48 12.25L8.51 12.25Q8.75 12.25 8.95 12.22Q9.15 12.19 9.29 12.09Q9.44 11.98 9.52 11.79Q9.60 11.60 9.60 11.29L9.60 11.29L9.60 7.10Q9.60 6.81 9.53 6.63Q9.46 6.45 9.33 6.35Q9.19 6.25 9.01 6.22Q8.83 6.19 8.59 6.19L8.59 6.19L8.55 6.19L8.55 5.49L11.49 5.49L11.68 6.49L11.74 6.49Q11.96 6.09 12.19 5.86Q12.43 5.63 12.69 5.50Q12.96 5.38 13.26 5.35Q13.56 5.31 13.88 5.31L13.88 5.31Q14.66 5.31 15.20 5.59Q15.75 5.87 16.00 6.49L16.00 6.49L16.13 6.49Q16.34 6.09 16.59 5.86Q16.84 5.63 17.12 5.50Q17.40 5.38 17.72 5.35Q18.03 5.31 18.35 5.31L18.35 5.31Q18.89 5.31 19.33 5.47Q19.76 5.63 20.05 5.95Q20.35 6.28 20.51 6.79Q20.67 7.30 20.67 8.01L20.67 8.01L20.67 11.26Q20.67 11.59 20.72 11.78Q20.78 11.98 20.90 12.08Q21.01 12.18 21.19 12.22Q21.37 12.25 21.60 12.25L21.60 12.25L21.64 12.25L21.64 13.00L18.53 13.00L18.53 8.39Q18.53 7.49 18.28 6.99Q18.03 6.50 17.42 6.50L17.42 6.50Q17.09 6.50 16.86 6.66Q16.63 6.82 16.48 7.10Q16.33 7.37 16.26 7.73Q16.19 8.10 16.19 8.50L16.19 8.50L16.19 11.26Q16.19 11.59 16.25 11.78Q16.31 11.98 16.43 12.08Q16.54 12.18 16.72 12.22Q16.90 12.25 17.14 12.25L17.14 12.25L17.18 12.25L17.18 13.00ZM24.81 10.91L24.81 10.91Q24.81 11.51 25.00 11.81Q25.19 12.11 25.60 12.11L25.60 12.11Q25.90 12.11 26.14 11.99Q26.39 11.86 26.56 11.63Q26.74 11.40 26.83 11.06Q26.92 10.73 26.92 10.32L26.92 10.32L26.92 9.27L26.29 9.31Q25.87 9.33 25.59 9.44Q25.30 9.56 25.13 9.75Q24.96 9.95 24.88 10.24Q24.81 10.53 24.81 10.91ZM26.05 6.17L26.05 6.17Q25.79 6.17 25.60 6.28Q25.42 6.39 25.31 6.59Q25.20 6.79 25.16 7.07Q25.12 7.35 25.12 7.68L25.12 7.68Q24.17 7.68 23.70 7.46Q23.22 7.25 23.22 6.74L23.22 6.74Q23.22 6.36 23.45 6.08Q23.68 5.81 24.07 5.64Q24.47 5.47 24.99 5.39Q25.51 5.31 26.11 5.31L26.11 5.31Q26.84 5.31 27.40 5.44Q27.95 5.56 28.31 5.84Q28.68 6.13 28.86 6.58Q29.05 7.03 29.05 7.69L29.05 7.69L29.05 11.26Q29.05 11.55 29.09 11.74Q29.13 11.93 29.23 12.04Q29.33 12.15 29.49 12.20Q29.65 12.25 29.89 12.25L29.89 12.25L29.94 12.25L29.94 13.00L27.34 13.00L27.04 12.03L26.92 12.03Q26.69 12.31 26.48 12.52Q26.28 12.73 26.04 12.87Q25.81 13.00 25.52 13.07Q25.23 13.13 24.83 13.13L24.83 13.13Q24.37 13.13 23.97 13.00Q23.57 12.86 23.27 12.57Q22.98 12.29 22.80 11.86Q22.63 11.44 22.63 10.86L22.63 10.86Q22.63 9.71 23.42 9.17Q24.20 8.62 25.77 8.57L25.77 8.57L26.92 8.53L26.92 7.76Q26.92 7.41 26.89 7.12Q26.87 6.82 26.78 6.61Q26.69 6.40 26.51 6.28Q26.34 6.17 26.05 6.17ZM35.35 12.25L35.35 13.00L30.67 13.00L30.67 12.25L30.71 12.25Q30.95 12.25 31.15 12.22Q31.35 12.18 31.49 12.08Q31.64 11.97 31.72 11.77Q31.79 11.57 31.79 11.25L31.79 11.25L31.79 7.18Q31.79 6.88 31.72 6.69Q31.65 6.50 31.52 6.40Q31.38 6.30 31.20 6.27Q31.01 6.23 30.78 6.23L30.78 6.23L30.74 6.23L30.74 5.49L33.57 5.49L33.85 6.58L33.92 6.58Q34.06 6.27 34.22 6.03Q34.38 5.80 34.61 5.64Q34.84 5.48 35.15 5.40Q35.46 5.33 35.90 5.33L35.90 5.33Q36.72 5.33 37.11 5.62Q37.50 5.91 37.50 6.46L37.50 6.46Q37.50 7.10 37.04 7.46Q36.57 7.81 35.72 7.81L35.72 7.81Q35.72 7.53 35.69 7.31Q35.66 7.09 35.58 6.95Q35.51 6.80 35.37 6.73Q35.24 6.65 35.04 6.65L35.04 6.65Q34.79 6.65 34.62 6.77Q34.44 6.90 34.32 7.09Q34.19 7.29 34.11 7.53Q34.04 7.78 33.99 8.03Q33.95 8.28 33.93 8.50Q33.92 8.73 33.92 8.89L33.92 8.89L33.92 11.31Q33.92 11.62 34.00 11.81Q34.07 12.00 34.20 12.09Q34.33 12.19 34.51 12.22Q34.69 12.25 34.90 12.25L34.90 12.25L35.35 12.25ZM42.11 12.00L42.11 12.00Q42.38 12.00 42.63 11.97Q42.88 11.93 43.10 11.87L43.10 11.87L43.10 12.78Q42.99 12.84 42.80 12.90Q42.62 12.96 42.37 13.01Q42.12 13.06 41.80 13.10Q41.49 13.13 41.12 13.13L41.12 13.13Q40.65 13.13 40.26 13.02Q39.88 12.91 39.61 12.64Q39.35 12.38 39.20 11.96Q39.06 11.54 39.06 10.92L39.06 10.92L39.06 6.45L38.01 6.45L38.01 5.73Q38.46 5.73 38.81 5.55Q39.17 5.37 39.38 5.14L39.38 5.14Q39.81 4.69 40.02 3.75L40.02 3.75L41.19 3.75L41.19 5.49L42.98 5.49L42.98 6.45L41.19 6.45L41.19 10.78Q41.19 11.42 41.40 11.71Q41.62 12.00 42.11 12.00ZM52.36 13.00L47.28 13.00L47.28 12.25L47.59 12.25Q47.74 12.25 47.92 12.22Q48.09 12.19 48.24 12.09Q48.38 12.00 48.48 11.82Q48.58 11.64 48.58 11.34L48.58 11.34L48.58 6.45L47.34 6.45L47.34 5.49L48.58 5.49L48.58 4.97Q48.58 4.32 48.75 3.81Q48.92 3.30 49.27 2.95Q49.62 2.60 50.16 2.41Q50.70 2.23 51.44 2.23L51.44 2.23Q52.12 2.23 52.57 2.31Q53.02 2.39 53.29 2.53Q53.55 2.67 53.67 2.85Q53.78 3.04 53.78 3.25L53.78 3.25Q53.78 3.73 53.35 3.94Q52.92 4.16 52.06 4.16L52.06 4.16Q52.06 3.99 52.02 3.79Q51.99 3.60 51.91 3.42Q51.82 3.25 51.69 3.14Q51.56 3.03 51.36 3.03L51.36 3.03Q51.19 3.03 51.06 3.12Q50.94 3.21 50.86 3.41Q50.78 3.62 50.75 3.94Q50.72 4.26 50.72 4.72L50.72 4.72L50.72 5.49L52.64 5.49L52.64 6.45L50.72 6.45L50.72 11.34Q50.72 11.64 50.81 11.82Q50.91 12.00 51.06 12.09Q51.21 12.19 51.38 12.22Q51.56 12.25 51.71 12.25L51.71 12.25L52.36 12.25L52.36 13.00ZM56.88 6.22L56.88 6.22Q56.29 6.22 55.94 6.80Q55.60 7.38 55.56 8.50L55.56 8.50L57.98 8.50Q57.98 7.97 57.92 7.55Q57.86 7.12 57.73 6.83Q57.59 6.54 57.38 6.38Q57.18 6.22 56.88 6.22ZM57.00 13.13L57.00 13.13Q56.12 13.13 55.44 12.87Q54.76 12.61 54.30 12.12Q53.84 11.63 53.61 10.91Q53.38 10.20 53.38 9.28L53.38 9.28Q53.38 8.30 53.61 7.55Q53.84 6.81 54.28 6.31Q54.73 5.81 55.37 5.56Q56.02 5.31 56.85 5.31L56.85 5.31Q57.61 5.31 58.21 5.53Q58.82 5.74 59.25 6.17Q59.67 6.59 59.90 7.22Q60.12 7.85 60.12 8.68L60.12 8.68L60.12 9.40L55.54 9.40Q55.56 10.10 55.69 10.61Q55.82 11.12 56.06 11.44Q56.29 11.77 56.63 11.93Q56.97 12.09 57.41 12.09L57.41 12.09Q57.77 12.09 58.08 12.00Q58.39 11.92 58.64 11.76Q58.88 11.61 59.07 11.40Q59.26 11.19 59.38 10.95L59.38 10.95Q59.76 11.16 59.76 11.63L59.76 11.63Q59.76 11.94 59.60 12.21Q59.43 12.48 59.09 12.68Q58.75 12.89 58.23 13.01Q57.72 13.13 57.00 13.13ZM64.87 6.22L64.87 6.22Q64.28 6.22 63.93 6.80Q63.59 7.38 63.55 8.50L63.55 8.50L65.97 8.50Q65.97 7.97 65.91 7.55Q65.85 7.12 65.72 6.83Q65.58 6.54 65.38 6.38Q65.17 6.22 64.87 6.22ZM65.00 13.13L65.00 13.13Q64.11 13.13 63.43 12.87Q62.75 12.61 62.29 12.12Q61.83 11.63 61.60 10.91Q61.37 10.20 61.37 9.28L61.37 9.28Q61.37 8.30 61.60 7.55Q61.83 6.81 62.28 6.31Q62.72 5.81 63.37 5.56Q64.01 5.31 64.84 5.31L64.84 5.31Q65.60 5.31 66.21 5.53Q66.81 5.74 67.24 6.17Q67.66 6.59 67.89 7.22Q68.11 7.85 68.11 8.68L68.11 8.68L68.11 9.40L63.53 9.40Q63.55 10.10 63.68 10.61Q63.81 11.12 64.05 11.44Q64.29 11.77 64.62 11.93Q64.96 12.09 65.40 12.09L65.40 12.09Q65.76 12.09 66.07 12.00Q66.38 11.92 66.63 11.76Q66.88 11.61 67.06 11.40Q67.25 11.19 67.38 10.95L67.38 10.95Q67.75 11.16 67.75 11.63L67.75 11.63Q67.75 11.94 67.59 12.21Q67.42 12.48 67.08 12.68Q66.74 12.89 66.22 13.01Q65.71 13.13 65.00 13.13ZM71.93 13.13L71.93 13.13Q71.18 13.13 70.64 13.01Q70.10 12.89 69.76 12.67Q69.43 12.45 69.27 12.15Q69.12 11.85 69.12 11.50L69.12 11.50Q69.12 11.16 69.25 10.95Q69.38 10.74 69.59 10.62Q69.79 10.51 70.01 10.47Q70.24 10.43 70.42 10.43L70.42 10.43Q70.42 10.87 70.53 11.22Q70.64 11.57 70.84 11.81Q71.04 12.05 71.32 12.18Q71.59 12.31 71.93 12.31L71.93 12.31Q72.30 12.31 72.56 12.24Q72.82 12.16 72.99 12.03Q73.16 11.89 73.24 11.72Q73.32 11.55 73.32 11.35L73.32 11.35Q73.32 11.12 73.24 10.94Q73.15 10.76 72.95 10.60Q72.75 10.44 72.42 10.28Q72.09 10.13 71.60 9.96L71.60 9.96Q71.03 9.76 70.60 9.54Q70.16 9.32 69.87 9.03Q69.57 8.75 69.42 8.38Q69.26 8.02 69.26 7.55L69.26 7.55Q69.26 6.99 69.48 6.57Q69.69 6.15 70.09 5.88Q70.49 5.60 71.04 5.46Q71.59 5.33 72.27 5.33L72.27 5.33Q72.93 5.33 73.40 5.44Q73.86 5.55 74.16 5.74Q74.45 5.92 74.59 6.15Q74.72 6.38 74.72 6.62L74.72 6.62Q74.72 7.10 74.39 7.34Q74.06 7.59 73.29 7.59L73.29 7.59Q73.29 6.89 72.98 6.50Q72.67 6.12 72.06 6.12L72.06 6.12Q71.84 6.12 71.63 6.17Q71.42 6.23 71.27 6.34Q71.11 6.45 71.02 6.61Q70.93 6.77 70.93 6.99L70.93 6.99Q70.93 7.21 71.02 7.39Q71.10 7.57 71.32 7.73Q71.53 7.89 71.90 8.05Q72.27 8.22 72.84 8.42L72.84 8.42Q73.31 8.58 73.70 8.79Q74.09 9.00 74.38 9.27Q74.66 9.54 74.82 9.88Q74.98 10.23 74.98 10.67L74.98 10.67Q74.98 11.25 74.77 11.71Q74.57 12.17 74.18 12.48Q73.79 12.80 73.23 12.96Q72.66 13.13 71.93 13.13Z"/></g><defs data-v-423bf9ae=""><linearGradient y2="0%" x2="100%" y1="0%" x1="0%" id="b0ebd626-dfa2-4af9-92e7-35f3f070373e" gradientTransform="rotate(25)" data-v-423bf9ae=""><stop style="stop-color: rgb(13, 124, 233); stop-opacity: 1;" offset="0%" data-v-423bf9ae=""/><stop style="stop-color: rgb(21, 207, 241); stop-opacity: 1;" offset="100%" data-v-423bf9ae=""/></linearGradient></defs><g fill="url(#b0ebd626-dfa2-4af9-92e7-35f3f070373e)" stroke="none" transform="matrix(1.8789924575762558,0,0,1.8789924575762558,650.2550509008476,-526.5573843501397)" id="e51abb71-f215-4363-9266-2bd1f9ebadbd" data-v-423bf9ae=""><path d="M-298.567 324.655v-3.785c-2.536-.12-4.997-.877-6.436-1.714l1.136-4.662c1.59.917 3.823 1.754 6.284 1.754 2.196 0 3.672-.917 3.672-2.471 0-1.514-1.212-2.471-4.051-3.466-4.051-1.436-6.814-3.428-6.814-7.292 0-3.546 2.347-6.295 6.397-7.092v-3.785h3.71v3.506c2.498.08 4.202.677 5.526 1.315l-1.135 4.502c-.946-.478-2.726-1.395-5.452-1.395-2.461 0-3.256 1.156-3.256 2.271 0 1.275 1.325 2.152 4.581 3.387 4.505 1.674 6.284 3.865 6.284 7.491 0 3.546-2.347 6.574-6.701 7.331v4.104h-3.745z"/><path d="M-285.683 328.354c5.265-4.159 8.608-11.236 8.608-19.415 0-12.873-8.618-23.308-19.246-23.308s-19.244 10.435-19.244 23.308c0 8.177 3.315 15.233 8.576 19.393l.052.066H-346V280.5h99.922v47.898h-39.668l.063-.044zm32.271-7.291v-10.812h-3.089v7.723h-15.447v3.089h18.536zm-66.421 0v-3.089h-15.447v-7.723h-3.089v10.812h18.536zm66.421-22.396v-10.812h-18.536v3.089h15.447v7.724h3.089v-.001zm-81.868 0v-7.724h15.447v-3.089h-18.536v10.812h3.089v.001z"/></g></svg>